<?xml version="1.0" encoding="utf-8"?>
<!-- Generator: Adobe Illustrator 22.0.0, SVG Export Plug-In . SVG Version: 6.00 Build 0)  -->
<svg version="1.1" id="Layer_1" xmlns="http://www.w3.org/2000/svg" xmlns:xlink="http://www.w3.org/1999/xlink" x="0px" y="0px"
	 viewBox="0 0 512 512" style="enable-background:new 0 0 512 512;" xml:space="preserve">
<g>
	<path d="M183.5,191c4.4,29.8,20.2,51.5,47,64.6c5.8,2.9,13.1,5.8,21.4,5.8c2.6,0,5.3-0.3,8.1-1c25.3-6.2,43.9-22,55.2-47
		c4.6-10.1,6.9-21.2,7.1-33.9c0.2-14.3,0.1-29.6-3.9-44.8c-5.4-20.3-18.9-33.7-39.2-38.8c-17.2-4.3-34.9-4.4-52.5-0.2
		c-21.1,5-34.7,18.1-40.4,39.1c-2.9,10.5-3.5,21.2-4,31.6L182,172l0.3,5.9C182.6,182.3,182.8,186.7,183.5,191z M195.9,154.3
		c0.9-1,23.1-25.3,55.1-26.2c19.9-0.5,39.2,8.2,56.9,26c1.8,1.8,1.8,4.8,0,6.7s-4.8,1.8-6.7,0c-15.9-15.9-32.4-23.5-50-23.2
		c-28,0.7-48.2,22.8-48.4,23c-0.9,1-2.2,1.6-3.5,1.6c-1.1,0-2.2-0.4-3.1-1.2C194.3,159.2,194.1,156.2,195.9,154.3z M193.2,167
		c0.1-1.5,0.2-2.9,0.3-4.4c3.9,6,5.8,9.1,6.9,10.1c1.8,1.7,3.7,2.6,5.6,2.6c1.8,0,3.5-0.7,5.4-2.1c1.6-1.2,3.1-2.5,4.7-3.7
		c2.9-2.3,5.6-4.5,8.5-6.4c17.3-11.3,43.7-9.9,60,3c1.3,1,2.6,2.1,3.8,3.2c1.6,1.3,3.2,2.7,4.9,4c3.8,3,7.5,2.8,11-0.6
		c0.9-0.8,3.3-4,6.9-8.6c0.2,5.2,0.2,10.4,0.1,15.5c-0.2,11.2-2.2,20.9-6.2,29.6c-10,22.1-25.7,35.5-47.9,40.9
		c-6.4,1.6-13.2,0.3-22.1-4c-23.4-11.5-37.2-30.5-41.1-56.5c-0.6-4-0.8-8-1-12.1l-0.3-5.3L193.2,167z"/>
	<path d="M379.5,251.1c-1.3-0.1-3,0.9-4.1,1.9c-6.9,6.7-13.8,13.6-20.5,20.5c-1.8,1.8-3.3,2.3-5.1,0.5c-5.6-5.5-11.2-11-16.7-16.6
		c-2.1-2.1-1.3-3.8,0.7-5.7c6.8-6.6,13.5-13.4,20.2-20.2c1-1,2.2-2.9,1.8-3.6c-0.6-1.1-2.3-2.1-3.7-2.3
		c-13.8-2.9-26.1,0.6-35.9,10.6c-10.4,10.8-13.7,23.9-9.2,38.4c1,3.1,0.4,4.8-1.8,7c-19.5,19.3-38.9,38.8-58.3,58.3
		c-1,1-2,1.6-3,1.9c-0.3,0.1-0.5,0.2-0.8,0.2c-1,0.2-2.1,0.1-3.5-0.3c-3.9-1.1-7.7-1.6-11.3-1.7c-0.2,0-0.5-0.1-0.8-0.1
		c-2.7,0-5.3,0.4-7.8,0.9c-0.6,0.1-1.2,0.4-1.8,0.6c-2.3,0.6-4.5,1.5-6.6,2.6c-0.7,0.4-1.5,0.8-2.2,1.2c-2.6,1.6-5.1,3.4-7.5,5.7
		c0,0,0,0,0,0c0,0,0,0,0,0c-2.1,2-3.8,4.3-5.3,6.5c-0.7,1-1.3,2-1.9,3c-0.5,0.9-0.9,1.9-1.3,2.8c-1.3,2.9-2.2,6-2.6,9.2c0,0,0,0,0,0
		c-0.7,4.8-0.7,9.8,0.4,15.1c1,4.3,2.4,4.7,5.7,1.5c3.5-3.4,6.9-6.9,10.4-10.4c0,0,0,0,0,0c3.6-3.6,7.2-7,10.6-10.7
		c0.8-0.8,1.6-1.3,2.3-1.3c0.7,0,1.4,0.2,2.1,0.9c5.7,5.6,11.4,11.1,17.1,16.8c2.2,2.1,1.3,3.8-0.7,5.7
		c-6.7,6.5-13.3,13.2-19.9,19.9c-1,1.1-1.6,2.7-2.3,4c1.4,0.8,2.8,2,4.3,2.3c25.5,5.7,48.1-15.9,46.2-40.5c-0.2-2.9-0.6-5.7-1.5-8.6
		c-1-3.1-0.5-4.8,1.8-7c10.5-10.4,18.1-17.7,58.6-58.6c0.9-1,1.8-1.4,2.7-1.7c0.2-0.1,0.5-0.1,0.7-0.2c0.9-0.1,1.9-0.1,3.2,0.3
		c3.9,1.2,7.8,1.7,11.5,1.8c0.3,0,0.6,0.1,1,0.1c1.6,0,3.2-0.2,4.8-0.5c0-0.1-0.1-0.1-0.1-0.1c7.5-1,14.5-4.1,20.7-9.9
		c10.7-9.9,14.3-22.5,11.3-36.8C381.2,253.4,380.2,251.2,379.5,251.1z"/>
	<path d="M344.8,311.3c-4.5,0-9.1-0.6-13.6-2c-32.7,33-43.5,43.7-52.2,52.2l-4.2,4.2c1.1,3.8,1.6,7.7,1.7,11.5
		c14.5-1,30.7-3,48.5-6.5c5.7-1.9,13.3-5.7,21.7-11.1c5.3-3.3,10-7.3,13.3-12.7c1-1.7,2-3.9,1.7-5.7c-1.6-10.6-4.2-21-8.2-30.9
		C350.7,311,347.8,311.3,344.8,311.3z"/>
	<path d="M227.6,330.5c4.4,0,9,0.6,13.6,1.9c18.7-18.8,37.4-37.6,56.4-56.5c-1-3.5-1.3-6.9-1.6-10.3c-2.1-1.1-4.1-2.3-6.2-3.4
		c-2.1-1.2-3.9-0.8-6,0.4c-4.9,2.9-9.8,6.3-15.1,8.1c-9,3.1-16.3,5-28.7,1.5c-7.4-1.8-14-5.2-20-9.8c-1.9-1.4-3.7-1.4-5.7-0.3
		c-49,27.4-30,16.8-47,26.2c-6.1,3.4-10.2,8.5-13.3,14.6c-5.4,10.8-8.3,22.5-11,34.2c-1.3,5.6,0.2,9.6,3.8,13.6
		c6.5,7.3,14.7,12,23.5,15.8c3.7,1.4,7.5,2.6,11.1,3.6c1.6-9.7,5.9-18.6,13.6-26.1C204.3,335.2,215.6,330.5,227.6,330.5z"/>
</g>
</svg>
