<?xml version="1.0" encoding="utf-8"?>
<!-- Generator: Adobe Illustrator 21.1.0, SVG Export Plug-In . SVG Version: 6.00 Build 0)  -->
<svg version="1.1" id="Layer_1" xmlns="http://www.w3.org/2000/svg" xmlns:xlink="http://www.w3.org/1999/xlink" x="0px" y="0px"
	 viewBox="0 0 512 512" style="enable-background:new 0 0 512 512;" xml:space="preserve">
<g>
	<path d="M316.2,158.7c0-34.4-27.8-62.2-62.2-62.2c-34.3,0-62.2,27.8-62.2,62.2v47.5c-11.1,2.1-22.2,4.9-33.2,8.7v140.2
		c0,0,99.6,31.1,190.8,0V214.9c0,0-12.8-3.9-33.2-7.6V158.7z M177,350.2c-7.2-1.8-11.3-3-11.3-3V223.5c3.8-1.3,7.5-2.4,11.3-3.5
		L177,350.2z M211.4,158.7c0-23.5,19.1-42.6,42.6-42.6c23.5,0,42.5,19.1,42.6,42.6v45.6c-23.9-3.1-53.8-4.7-85.2-1.1V158.7z
		 M297.5,252.6c-2.4,3.4-7.5,5.5-14.1,5.5l0,0c-0.2,0-15,0-15,0c-2.2,0.1-3.9,2-3.9,4.4v68.8c0,7.6-3.9,10-9.2,10H253
		c-3,0-5.5-0.6-7.2-2.4c-1.6-1.5-2.5-4-2.5-7.7v-69.9c-0.5-1.8-2-3-3.8-3.2h-28.3c-0.5,0-1.5-0.3-2-1.5c-0.8-2.1-2.6-8.7,1.1-14
		c2.4-3.4,7.5-5.5,14.1-5.5l0,0c0.2,0,72.2,0,72.2,0c0.5,0,1.5,0.3,2,1.5C299.5,240.7,301.3,247.4,297.5,252.6z"/>
</g>
</svg>
