<?xml version="1.0" encoding="utf-8"?>
<!-- Generator: Adobe Illustrator 21.1.0, SVG Export Plug-In . SVG Version: 6.00 Build 0)  -->
<svg version="1.1" id="Layer_1" xmlns="http://www.w3.org/2000/svg" xmlns:xlink="http://www.w3.org/1999/xlink" x="0px" y="0px"
	 viewBox="0 0 512 512" style="enable-background:new 0 0 512 512;" xml:space="preserve">
<style type="text/css">
	.st0{fill:#231F20;}
</style>
<path id="XMLID_38_" class="st0" d="M237.4,171.1c-0.5,0-1,0.1-1.5,0.2l-1.5,0.2l-1.5,0.2l-1.5,0.3c-1,0.2-2,0.3-3,0.5
	c-1,0.2-2,0.4-3,0.7c-8,1.9-15.7,4.9-22.6,8.9c-0.4,0.2-0.9,0.5-1.3,0.7c-0.4,0.3-0.8,0.5-1.3,0.8c-0.8,0.5-1.7,1-2.5,1.6
	c-1.6,1.1-3.2,2.2-4.7,3.4c-0.4,0.3-0.8,0.6-1.1,0.9l-0.6,0.4l-0.5,0.5c-0.7,0.6-1.5,1.2-2.2,1.8c-0.2,0.2-0.4,0.3-0.5,0.5l-0.5,0.5
	c-0.3,0.3-0.7,0.6-1,1c-0.3,0.3-0.7,0.6-1,1c-0.2,0.2-0.3,0.3-0.5,0.5l-0.5,0.5c-0.6,0.7-1.3,1.3-1.9,2l-0.5,0.5l-0.5,0.5
	c-0.3,0.3-0.6,0.7-0.9,1c-0.3,0.3-0.6,0.7-0.9,1c-0.3,0.3-0.6,0.7-0.9,1c-0.6,0.7-1.1,1.4-1.7,2.1c-0.3,0.3-0.6,0.7-0.8,1
	c-0.3,0.4-0.5,0.7-0.8,1.1c-0.5,0.7-1,1.4-1.5,2.1c-0.5,0.7-0.9,1.4-1.4,2.1c-0.2,0.3-0.5,0.7-0.7,1c-0.2,0.3-0.5,0.7-0.7,1
	c-3.4,5.6-6,11.1-7.8,16.2c-0.2,0.6-0.4,1.3-0.7,1.9c-0.2,0.6-0.4,1.2-0.6,1.8c-0.4,1.2-0.7,2.4-1,3.5c-0.3,1.1-0.5,2.2-0.8,3.3
	c-0.1,0.5-0.3,1-0.4,1.5c-0.1,0.5-0.2,1-0.3,1.5c-0.2,1-0.3,1.9-0.5,2.7c-0.1,0.9-0.2,1.7-0.3,2.4c-0.1,0.8-0.2,1.5-0.3,2.1
	c-0.1,0.6-0.1,1.2-0.2,1.8c-0.2,2.1-0.3,3.2-0.3,3.2s0-1.1-0.1-3.2c0-0.5,0-1.1,0-1.8c0-0.7,0-1.4,0-2.1c0-0.8,0-1.6,0.1-2.5
	c0.1-0.9,0.1-1.8,0.2-2.8c0-0.5,0.1-1,0.1-1.5c0.1-0.5,0.1-1.1,0.2-1.6c0.1-1.1,0.3-2.2,0.4-3.4c0.2-1.2,0.4-2.4,0.6-3.7
	c0.1-0.6,0.3-1.3,0.4-1.9c0.1-0.7,0.3-1.3,0.5-2c1.3-5.4,3.3-11.5,6.2-17.8c0.2-0.4,0.4-0.8,0.6-1.2c0.2-0.4,0.4-0.8,0.6-1.2
	c0.4-0.8,0.8-1.6,1.2-2.4c0.4-0.8,0.9-1.6,1.3-2.4c0.2-0.4,0.5-0.8,0.7-1.2c0.2-0.4,0.5-0.8,0.7-1.2c0.5-0.8,1-1.6,1.5-2.4
	c0.2-0.4,0.5-0.8,0.8-1.2c0.3-0.4,0.6-0.8,0.8-1.2c0.3-0.4,0.6-0.8,0.8-1.2l0.4-0.6l0.5-0.6c0.6-0.8,1.2-1.6,1.8-2.4l0.5-0.6
	c0.2-0.2,0.3-0.4,0.5-0.6c0.3-0.4,0.7-0.8,1-1.2c0.3-0.4,0.7-0.8,1-1.2l0.5-0.6c0.2-0.2,0.4-0.4,0.5-0.6c0.7-0.8,1.4-1.5,2.1-2.3
	l0.5-0.6l0.6-0.5c0.4-0.4,0.8-0.7,1.1-1.1c1.5-1.5,3.2-2.9,4.8-4.3c0.8-0.7,1.7-1.4,2.6-2.1c0.4-0.3,0.9-0.7,1.3-1
	c0.4-0.3,0.9-0.7,1.3-1c7.2-5.3,15.4-9.7,24.4-13c1.1-0.4,2.3-0.8,3.4-1.2c1.1-0.4,2.3-0.7,3.4-1l1.7-0.5l1.8-0.4l1.8-0.4
	c0.6-0.1,1.2-0.3,1.8-0.4c1.2-0.2,2.4-0.4,3.6-0.6c0.3-0.1,0.6-0.1,0.9-0.2l0.9-0.1l1.8-0.2l1.8-0.2c0.6-0.1,1.2-0.1,1.8-0.2
	l3.7-0.3c0.4,0,0.2,0,0.3,0l0.1,0l0.2,0l0.4,0l0.8,0l1.7-0.1l0.8,0l0.4,0c0.1,0,0.3,0,0.5,0l1.9,0l1.9,0l1,0c0.3,0,0.6,0,0.9,0.1
	c1.2,0.1,2.5,0.2,3.7,0.3c0.6,0,1.2,0.1,1.8,0.2l1.8,0.2l1.8,0.2l1.8,0.3c1.2,0.2,2.4,0.4,3.6,0.7c1.2,0.3,2.4,0.5,3.6,0.8
	c0,0,0.1,0,0.1,0l-10,17.1c-0.5-0.1-0.9-0.3-1.4-0.4l-1.4-0.4l-1.5-0.4l-1.5-0.4c-0.5-0.1-1-0.3-1.5-0.3c-1-0.2-2-0.4-3-0.6
	c-0.2,0-0.5-0.1-0.7-0.1l-0.7-0.1l-1.4-0.2l-1.4-0.2c-0.1,0-0.2,0-0.4-0.1l-0.4,0l-0.8-0.1l-1.7-0.1l-0.8-0.1l-0.4,0l-0.2,0l-0.1,0
	c0.1,0-0.3,0,0.1,0l-3.1-0.1c-0.5,0-1-0.1-1.5,0l-1.5,0l-1.5,0l-0.8,0c-0.3,0-0.5,0-0.8,0C239.4,171,238.4,171.1,237.4,171.1z
	 M269.3,254c-2.7,4.7-7.8,7.6-13.2,7.6c-0.4,0-0.8,0-1.2,0c-2.3-0.2-4.6-0.9-6.6-2.1c-5.9-3.5-8.8-10.5-7.1-17.1
	c0.4-1.4,0.9-2.7,1.6-3.9l50.5-86.1c0.1-0.2,0.3-0.4,0.4-0.6c0.7-0.8,1.7-1.3,2.9-1.3l0.3,0c1.1,0.1,2.2,0.7,2.9,1.6
	c0.7,0.9,0.9,1.9,0.7,3c0,0.2-0.1,0.3-0.1,0.5l-29.7,95.3C270.4,251.9,269.9,253,269.3,254z M325,248.5c0-0.6,0-1.3,0-2
	c0-0.7-0.1-1.5-0.1-2.3c0-0.4,0-0.8-0.1-1.3c0-0.4-0.1-0.9-0.1-1.3c-0.1-0.9-0.2-1.8-0.3-2.8c-0.2-1-0.3-2-0.5-3
	c-0.1-0.5-0.2-1.1-0.3-1.6c-0.1-0.5-0.2-1.1-0.3-1.7c-1-4.5-2.6-9.5-4.9-14.7c-0.1-0.3-0.3-0.7-0.5-1c-0.2-0.3-0.3-0.7-0.5-1
	c-0.3-0.7-0.6-1.3-1-2c-0.4-0.7-0.7-1.3-1.1-2c-0.2-0.3-0.4-0.7-0.6-1c-0.2-0.3-0.4-0.7-0.6-1c-0.4-0.7-0.8-1.3-1.2-2
	c-0.2-0.3-0.4-0.7-0.7-1c-0.2-0.3-0.5-0.7-0.7-1c-0.2-0.3-0.5-0.7-0.7-1l-0.3-0.5l-0.4-0.5c-0.5-0.7-1-1.3-1.5-2l-0.4-0.5
	c-0.1-0.2-0.3-0.3-0.4-0.5c-0.3-0.3-0.5-0.6-0.8-1c-0.3-0.3-0.5-0.7-0.8-1l-0.4-0.5c-0.1-0.2-0.3-0.3-0.4-0.5
	c-0.6-0.6-1.2-1.3-1.8-1.9l-0.4-0.5l-0.5-0.5c-0.3-0.3-0.6-0.6-0.9-0.9c-0.8-0.8-1.6-1.6-2.5-2.4l7.2-23.1c0.3,0.2,0.6,0.3,0.8,0.5
	c0.5,0.3,1,0.6,1.5,0.9c1,0.6,2,1.2,3,1.9c1.9,1.3,3.8,2.6,5.6,4.1c0.5,0.4,0.9,0.7,1.3,1.1l0.7,0.5l0.6,0.6
	c0.9,0.7,1.7,1.5,2.6,2.2c0.2,0.2,0.4,0.4,0.6,0.6l0.6,0.6c0.4,0.4,0.8,0.8,1.2,1.2c0.4,0.4,0.8,0.8,1.2,1.1
	c0.2,0.2,0.4,0.4,0.6,0.6l0.6,0.6c0.8,0.8,1.5,1.6,2.3,2.4l0.6,0.6l0.5,0.6c0.4,0.4,0.7,0.8,1.1,1.2c0.4,0.4,0.7,0.8,1,1.2
	c0.3,0.4,0.7,0.8,1,1.2c0.7,0.8,1.3,1.7,1.9,2.5c0.3,0.4,0.7,0.8,1,1.2c0.3,0.4,0.6,0.8,0.9,1.3c0.6,0.8,1.2,1.7,1.8,2.5
	c0.6,0.8,1.1,1.7,1.6,2.5c0.3,0.4,0.5,0.8,0.8,1.2c0.3,0.4,0.5,0.8,0.8,1.2c4,6.7,6.9,13.2,9,19.3c0.3,0.8,0.5,1.5,0.8,2.2
	c0.2,0.7,0.5,1.4,0.7,2.2c0.4,1.4,0.8,2.8,1.2,4.2c0.3,1.3,0.6,2.6,0.9,3.9c0.1,0.6,0.3,1.2,0.4,1.8c0.1,0.6,0.2,1.2,0.3,1.7
	c0.2,1.1,0.4,2.2,0.6,3.2c0.2,1,0.3,2,0.4,2.9c0.1,0.9,0.2,1.7,0.3,2.5c0.1,0.8,0.1,1.4,0.2,2.1c0.2,2.5,0.3,3.8,0.3,3.8h-32.7
	l0.1-2.7c0-0.4,0.1-0.9,0.1-1.5C325.1,249.7,325.1,249.1,325,248.5z M356.8,349.5c-2.1,2.1-4.9,3.3-7.9,3.3c-3,0-5.8-1.2-7.9-3.3
	c-2.1-2.1-3.3-4.9-3.3-7.9c0-3,1.2-5.8,3.3-7.9c23-22.9,35.6-53.4,35.6-85.9c0-66.9-54.4-121.3-121.3-121.3
	c-66.9,0-121.3,54.4-121.3,121.3c0,32.5,12.7,62.9,35.6,85.9c4.4,4.4,4.4,11.5,0,15.8c-2.1,2.1-4.9,3.3-7.9,3.3
	c-3,0-5.8-1.2-7.9-3.3c-27.2-27.2-42.2-63.3-42.2-101.7c0-79.2,64.5-143.7,143.7-143.7S399,168.5,399,247.8
	C399,286.2,384,322.3,356.8,349.5z"/>
</svg>
