<?xml version="1.0" encoding="utf-8"?>
<!-- Generator: Adobe Illustrator 21.1.0, SVG Export Plug-In . SVG Version: 6.00 Build 0)  -->
<svg version="1.1" id="Layer_1" xmlns="http://www.w3.org/2000/svg" xmlns:xlink="http://www.w3.org/1999/xlink" x="0px" y="0px"
	 viewBox="0 0 512 512" style="enable-background:new 0 0 512 512;" xml:space="preserve">
<g>
	<rect x="29" y="254.8" width="86.9" height="17.9"/>
	<rect x="53.3" y="290.6" width="62.6" height="16.6"/>
	<rect x="72.4" y="325.1" width="43.4" height="17.9"/>
	<rect x="182.1" y="277.5" width="52.4" height="33.5"/>
	<rect x="321.9" y="294.2" width="87.1" height="16.8"/>
	<path d="M414.9,145H174.8c-15.5,0-28.1,12.6-28.1,28.1v141.4c0,15.5,12.6,28.1,28.1,28.1h240.1c15.5,0,28.1-12.6,28.1-28.1V173.1
		C443,157.6,430.4,145,414.9,145z M424.3,314.5c0,5.2-4.2,9.4-9.4,9.4H174.8c-5.2,0-9.4-4.2-9.4-9.4v-83h258.8V314.5z M424.3,188.3
		H165.5v-15.2c0-5.2,4.2-9.4,9.4-9.4h240.1c5.2,0,9.4,4.2,9.4,9.4V188.3z"/>
</g>
</svg>
